<svg width="336" height="106" viewBox="0 0 336 106" fill="none" xmlns="http://www.w3.org/2000/svg">
<g opacity="0.5">
<path d="M232.669 137.26C220.823 137.26 209.31 134.683 196.555 131.827C187.675 129.839 178.495 127.784 168.074 126.302C133.784 121.43 88.8239 120.594 52.6982 119.922C20.5262 119.323 16.4052 119.246 0.0136642 92.0897C-2.41768 88.0647 -7.44216 81.9561 -12.7605 75.489C-19.5512 67.2302 -26.5727 58.6913 -27.9392 54.6162C-28.4506 53.0899 -29.01 51.6253 -29.552 50.2108C-31.4779 45.1747 -33.1424 40.826 -30.9839 37.4497C-29.3981 34.9711 -25.9613 33.2512 -20.1663 32.0352C-14.55 30.8576 -8.63374 29.5915 -2.48896 28.277C24.305 22.5455 54.6741 16.0498 83.884 11.6511C89.9924 10.7319 96.6928 9.67273 103.787 8.55186C128.565 4.63598 156.651 0.202205 168.514 0.354911C192.28 0.667669 258.285 19.653 301.961 32.2154C310.858 34.7741 319.261 37.1913 326.125 39.1112L328.622 39.8085C352.041 46.3508 367.512 50.6712 368.899 58.391C370.056 64.8182 361.299 73.307 339.618 86.777C329.391 93.1307 318.921 99.1224 308.796 104.919C298.676 110.712 288.212 116.702 277.948 123.075C260.755 133.749 246.487 137.26 232.669 137.26ZM167.885 1.03458C155.759 1.03458 128.25 5.38071 103.93 9.22399C96.8331 10.345 90.1308 11.4043 84.0187 12.3251C54.8355 16.7187 24.482 23.2127 -2.30059 28.9409C-8.44734 30.2553 -14.3636 31.5214 -19.9819 32.6991C-25.4713 33.8518 -28.8446 35.5133 -30.2958 37.7818C-32.2851 40.8961 -30.6725 45.1131 -28.8042 49.9956C-28.2602 51.4167 -27.6991 52.8864 -27.1821 54.4259C-25.8539 58.3893 -18.8728 66.8799 -12.1204 75.092C-6.78478 81.5791 -1.74497 87.706 0.709404 91.7729C16.8858 118.572 20.9549 118.648 52.6232 119.236C88.8642 119.912 133.857 120.748 168.2 125.628C178.657 127.115 187.856 129.173 196.751 131.165C224.193 137.31 245.859 142.158 277.49 122.517C287.766 116.139 298.236 110.145 308.363 104.349C318.481 98.5571 328.945 92.5668 339.161 86.2198C360.565 72.9234 369.226 64.6313 368.123 58.4961C366.808 51.1931 351.522 46.9228 328.382 40.4591L325.883 39.7619C319.015 37.8418 310.61 35.4231 301.713 32.8643C258.083 20.3152 192.148 1.34989 168.502 1.03867C168.3 1.03543 168.095 1.03458 167.885 1.03458Z" fill="#4FD44B"/>
<path d="M228.854 122.999C218.794 122.999 209.546 120.679 199.596 118.18C192.809 116.477 185.793 114.716 177.865 113.481C156.795 110.2 140.226 109.233 121.828 108.789C116.193 108.53 108.84 109.224 101.058 109.952C87.9724 111.174 73.1415 112.56 60.4518 110.26C53.0576 108.922 46.3052 105.563 40.9253 100.547C38.9014 98.6603 36.6621 96.7053 34.2904 94.6352C29.0085 90.0245 23.5439 85.2571 20.6359 81.3005C17.4355 76.9434 12.44 71.7807 7.15036 66.3127C-4.05925 54.7244 -15.6514 42.7392 -13.0605 35.6347C-12.1781 33.216 -9.66217 31.5146 -5.58343 30.5754C33.9251 21.486 134.608 3.97189 168.508 3.90356H168.614C198.091 3.90356 280.67 27.8565 307.986 37.6715C310.172 38.4572 316.101 39.5014 322.969 40.7108C337.094 43.2012 356.442 46.6108 360.496 50.7877L360.571 50.8645L360.584 50.9646C361.937 60.2659 343.157 68.4628 330.729 73.8875C327.311 75.3787 324.359 76.6682 322.635 77.644C314.533 82.2297 306.372 87.5042 297.73 93.0889C285.433 101.037 272.714 109.256 260.332 115.206C248.317 120.981 238.232 122.999 228.854 122.999ZM119.297 108.052C120.183 108.052 121.038 108.07 121.859 108.105C140.282 108.55 156.885 109.52 178.003 112.807C185.972 114.048 193.009 115.815 199.813 117.525C218.874 122.306 235.331 126.439 259.951 114.609C272.285 108.68 284.983 100.475 297.261 92.54C305.532 87.1955 314.083 81.6675 322.204 77.0703C323.965 76.0744 326.936 74.7783 330.375 73.277C342.559 67.9591 360.946 59.9338 359.818 51.1513C355.773 47.1897 336.735 43.8351 322.811 41.3814C315.621 40.1136 309.941 39.1128 307.686 38.3021C280.412 28.5036 197.993 4.58665 168.615 4.58665C168.579 4.58665 168.544 4.58751 168.508 4.58751C135.256 4.65344 33.0793 22.3869 -5.38167 31.2361C-9.23544 32.1235 -11.5017 33.6297 -12.3088 35.84C-14.7711 42.5875 -2.80409 54.9596 7.75384 65.874C13.0588 71.3586 18.0717 76.5397 21.3007 80.9335C24.1627 84.8286 29.5946 89.5691 34.8495 94.1548C37.2254 96.2282 39.4684 98.1866 41.502 100.08C46.7705 104.992 53.3786 108.282 60.6134 109.593C73.1781 111.87 87.9474 110.489 100.975 109.273C107.66 108.647 114.03 108.052 119.297 108.052Z" fill="#4FD44B"/>
<!-- ... truncated for brevity; same as source ... -->
</g>
</svg>

