<?xml version="1.0" encoding="UTF-8"?>
<svg version="1.1" xmlns="http://www.w3.org/2000/svg" width="256" height="256">
<path d="M0 0 C1.05316406 0.7425 2.10632813 1.485 3.19140625 2.25 C21.91062204 15.74470375 37.95531533 35.88291537 45 58 C45.25370361 58.77827148 45.50740723 59.55654297 45.76879883 60.35839844 C56.68921133 94.10417774 55.93523338 129.04988645 40.3359375 161.23828125 C39.29346085 163.39334264 38.36648148 165.52263291 37.5 167.75 C34.88504431 173.41573733 31.35231568 178.50230121 27.3125 183.25 C24.98402328 185.86194573 24.98402328 185.86194573 23.5 188.5625 C19.97434914 194.29168265 14.46194244 198.08330073 9.20703125 202.1328125 C6.80849611 203.98722912 6.80849611 203.98722912 5 207 C3.44698926 207.93180644 1.88463695 208.85014867 0.2890625 209.70703125 C-1.44030705 210.68385945 -3.12685397 211.73703194 -4.7890625 212.82421875 C-13.14485625 218.26688837 -21.5385708 221.89777498 -31 225 C-32.71316406 225.57041016 -32.71316406 225.57041016 -34.4609375 226.15234375 C-62.53825844 234.82424357 -89.8936081 233.44423311 -117.6875 224.625 C-119.46048462 224.06244507 -119.46048462 224.06244507 -121.26928711 223.48852539 C-127.96889802 221.26772049 -133.97808481 218.6724883 -140 215 C-141.01191406 214.42894531 -142.02382812 213.85789063 -143.06640625 213.26953125 C-143.89011719 212.78871094 -144.71382812 212.30789062 -145.5625 211.8125 C-146.40941406 211.32394531 -147.25632813 210.83539063 -148.12890625 210.33203125 C-148.74636719 209.89246094 -149.36382812 209.45289063 -150 209 C-150 208.34 -150 207.68 -150 207 C-151.65 206.34 -153.3 205.68 -155 205 C-155 204.01 -155 203.02 -155 202 C-155.56332031 201.73960937 -156.12664062 201.47921875 -156.70703125 201.2109375 C-159.23130047 199.87784813 -161.41178143 198.34777538 -163.6875 196.625 C-164.47511719 196.03976563 -165.26273438 195.45453125 -166.07421875 194.8515625 C-168.19828695 192.80935494 -168.36841732 191.77424169 -169 189 C-169.99 188.67 -170.98 188.34 -172 188 C-172.69937532 186.68352881 -173.36729133 185.34977849 -174 184 C-174.66 183.67 -175.32 183.34 -176 183 C-179 177.57692308 -179 177.57692308 -179 175 C-179.66 175 -180.32 175 -181 175 C-183.70820265 170.42407139 -185.93707731 165.91445632 -188 161 C-188.47179687 159.91203125 -188.94359375 158.8240625 -189.4296875 157.703125 C-192.40418413 150.59648981 -194.84632007 143.51559184 -196.8125 136.0625 C-197.0192334 135.28229492 -197.2259668 134.50208984 -197.43896484 133.69824219 C-202.6304469 113.23795211 -201.62664158 90.24752562 -196 70 C-195.82339844 69.34467285 -195.64679688 68.6893457 -195.46484375 68.01416016 C-190.34770582 49.56877315 -181.66913211 32.50243538 -168 19 C-166.26900555 17.05214718 -164.57441195 15.07640189 -162.87890625 13.09765625 C-148.25044867 -3.23390658 -129.7268042 -12.14525143 -109 -18 C-108.20916016 -18.2273584 -107.41832031 -18.4547168 -106.60351562 -18.68896484 C-71.43635965 -28.37407702 -29.41622552 -21.80662278 0 0 Z " fill="#C18800" transform="translate(202,24)"/>
<path d="M0 0 C4.62 0 9.24 0 14 0 C14 6.93 14 13.86 14 21 C20.27 21 26.54 21 33 21 C33 14.07 33 7.14 33 0 C37.62 0 42.24 0 47 0 C47 7.26 47 14.52 47 22 C49.6915625 22.0928125 49.6915625 22.0928125 52.4375 22.1875 C63.81141346 23.19969839 71.34876789 29.84924478 79 38 C81.09603807 40.87003378 82.62353016 43.73015815 84 47 C84.31582031 47.69480469 84.63164062 48.38960937 84.95703125 49.10546875 C88.56310618 58.14535521 88.29460442 69.86430651 85 79 C79.36104388 89.49669667 72.78485551 97.99531893 61.4375 102.375 C60.2309375 102.684375 60.2309375 102.684375 59 103 C62.02633059 108.64369759 65.58730881 113.5516455 69.5625 118.5625 C70.17730225 119.34608887 70.79210449 120.12967773 71.42553711 120.93701172 C74.33163504 124.63759599 77.25583858 128.32355788 80.1875 132.00390625 C80.67532959 132.6187085 81.16315918 133.23351074 81.66577148 133.86694336 C82.5596657 134.99208446 83.45727551 136.11428981 84.35961914 137.23266602 C87.58405156 141.28625636 90.32646142 145.56656511 93 150 C87.69824834 150.17357152 82.39816344 150.30030928 77.09423828 150.38452148 C75.29186179 150.41963692 73.48968348 150.46734303 71.68798828 150.52807617 C69.09097391 150.6134005 66.49660185 150.65277328 63.8984375 150.68359375 C62.69808365 150.73778725 62.69808365 150.73778725 61.47348022 150.79307556 C58.00667085 150.79548629 55.86192055 150.70137219 53.11407471 148.46536255 C49 143.82697447 49 143.82697447 49 141 C48.34 141 47.68 141 47 141 C47 150.9 47 160.8 47 171 C42.38 171 37.76 171 33 171 C33.00112793 169.55753906 33.00225586 168.11507812 33.00341797 166.62890625 C32.99973428 161.25367344 32.95682714 155.87933267 32.90234375 150.50439453 C32.8842268 148.18251304 32.87660739 145.86052408 32.87988281 143.53857422 C32.88275211 140.19154412 32.84730755 136.8467231 32.8046875 133.5 C32.81378143 132.4694751 32.82287537 131.4389502 32.83224487 130.37719727 C32.68644516 123.07205397 30.82947786 119.36666053 26 114 C25.10832375 112.76184069 24.23062194 111.51334322 23.375 110.25 C21.47079396 107.55594643 19.37732821 105.29535138 17 103 C16.34 102.01 15.68 101.02 15 100 C14.67 123.43 14.34 146.86 14 171 C9.38 171 4.76 171 0 171 C0 132.06 0 93.12 0 53 C-11.88 53 -23.76 53 -36 53 C-36 42.44 -36 31.88 -36 21 C-24.12 21 -12.24 21 0 21 C0 14.07 0 7.14 0 0 Z " fill="#04244C" transform="translate(105,43)"/>
<path d="M0 0 C1.05316406 0.7425 2.10632813 1.485 3.19140625 2.25 C21.91062204 15.74470375 37.95531533 35.88291537 45 58 C45.25370361 58.77827148 45.50740723 59.55654297 45.76879883 60.35839844 C56.68921133 94.10417774 55.93523338 129.04988645 40.3359375 161.23828125 C39.29346085 163.39334264 38.36648148 165.52263291 37.5 167.75 C34.88504431 173.41573733 31.35231568 178.50230121 27.3125 183.25 C24.98402328 185.86194573 24.98402328 185.86194573 23.5 188.5625 C19.97434914 194.29168265 14.46194244 198.08330073 9.20703125 202.1328125 C6.80849611 203.98722912 6.80849611 203.98722912 5 207 C3.44698926 207.93180644 1.88463695 208.85014867 0.2890625 209.70703125 C-1.44030705 210.68385945 -3.12685397 211.73703194 -4.7890625 212.82421875 C-13.14485625 218.26688837 -21.5385708 221.89777498 -31 225 C-32.71316406 225.57041016 -32.71316406 225.57041016 -34.4609375 226.15234375 C-62.53825844 234.82424357 -89.8936081 233.44423311 -117.6875 224.625 C-119.46048462 224.06244507 -119.46048462 224.06244507 -121.26928711 223.48852539 C-127.96889802 221.26772049 -133.97808481 218.6724883 -140 215 C-141.01191406 214.42894531 -142.02382812 213.85789063 -143.06640625 213.26953125 C-143.89011719 212.78871094 -144.71382812 212.30789062 -145.5625 211.8125 C-146.40941406 211.32394531 -147.25632813 210.83539063 -148.12890625 210.33203125 C-148.74636719 209.89246094 -149.36382812 209.45289063 -150 209 C-150 208.34 -150 207.68 -150 207 C-151.65 206.34 -153.3 205.68 -155 205 C-155 204.01 -155 203.02 -155 202 C-155.56332031 201.73960937 -156.12664062 201.47921875 -156.70703125 201.2109375 C-159.23130047 199.87784813 -161.41178143 198.34777538 -163.6875 196.625 C-164.47511719 196.03976563 -165.26273438 195.45453125 -166.07421875 194.8515625 C-168.19828695 192.80935494 -168.36841732 191.77424169 -169 189 C-169.99 188.67 -170.98 188.34 -172 188 C-172.69937532 186.68352881 -173.36729133 185.34977849 -174 184 C-174.66 183.67 -175.32 183.34 -176 183 C-179 177.57692308 -179 177.57692308 -179 175 C-179.66 175 -180.32 175 -181 175 C-183.70820265 170.42407139 -185.93707731 165.91445632 -188 161 C-188.47179687 159.91203125 -188.94359375 158.8240625 -189.4296875 157.703125 C-192.40418413 150.59648981 -194.84632007 143.51559184 -196.8125 136.0625 C-197.0192334 135.28229492 -197.2259668 134.50208984 -197.43896484 133.69824219 C-202.6304469 113.23795211 -201.62664158 90.24752562 -196 70 C-195.82339844 69.34467285 -195.64679688 68.6893457 -195.46484375 68.01416016 C-190.34770582 49.56877315 -181.66913211 32.50243538 -168 19 C-166.26900555 17.05214718 -164.57441195 15.07640189 -162.87890625 13.09765625 C-148.25044867 -3.23390658 -129.7268042 -12.14525143 -109 -18 C-108.20916016 -18.2273584 -107.41832031 -18.4547168 -106.60351562 -18.68896484 C-71.43635965 -28.37407702 -29.41622552 -21.80662278 0 0 Z M-160.328125 24.97265625 C-167.44344903 32.82012915 -173.51407252 41.40783715 -178 51 C-178.31364502 51.65556885 -178.62729004 52.3111377 -178.95043945 52.98657227 C-184.19497127 64.0188618 -184.19497127 64.0188618 -186 76 C-186.66 76 -187.32 76 -188 76 C-193.90036323 108.39931595 -189.83744084 143.07665643 -170.84960938 170.671875 C-154.46454792 193.58515779 -132.08158944 212.08808643 -104 218 C-102.68 218 -101.36 218 -100 218 C-100 218.66 -100 219.32 -100 220 C-69.27361691 226.96630548 -38.93265045 220.33802849 -12 205 C-4.35111257 200.07924943 2.39036257 194.22217593 9 188 C9.60328125 187.46117187 10.2065625 186.92234375 10.828125 186.3671875 C25.99516411 172.26325861 34.3443698 152.49426469 40 133 C40.34160156 131.85273438 40.68320313 130.70546875 41.03515625 129.5234375 C47.39011438 104.75387977 42.99829609 74.39681936 31 52 C30.55785156 50.90945312 30.11570313 49.81890625 29.66015625 48.6953125 C18.8701171 23.29040688 -7.8029076 4.24931058 -32.5 -5.75 C-78.29912762 -22.4658345 -126.71390646 -9.68579097 -160.328125 24.97265625 Z " fill="#04244C" transform="translate(202,24)"/>
<path d="M0 0 C9.60601299 -0.09300734 19.21186906 -0.16391997 28.8182354 -0.20724869 C33.27970247 -0.22805272 37.74085966 -0.2562376 42.20214844 -0.30175781 C46.51398861 -0.34547383 50.82553223 -0.36919103 55.13757706 -0.37950897 C56.77610054 -0.38685443 58.41460927 -0.4011976 60.05300522 -0.42292023 C71.71511145 -0.57128057 81.57992721 0.00603857 90.4375 8.5 C91.24058594 9.2528125 92.04367188 10.005625 92.87109375 10.78125 C98.80081916 16.9612207 101.16581593 22.91075867 101.375 31.4375 C101.09164867 40.8861769 98.94495924 46.99605503 92.38671875 53.91796875 C85.17319766 60.21061481 77.68311045 63.17690495 68.1875 63.0625 C67.21167969 63.05347656 66.23585938 63.04445312 65.23046875 63.03515625 C64.12638672 63.01775391 64.12638672 63.01775391 63 63 C63.53367188 63.63164062 64.06734375 64.26328125 64.6171875 64.9140625 C69.36694917 70.61706354 73.78903043 76.42196935 78.03637695 82.50195312 C81.82915091 87.87927355 85.93139459 92.98075435 90.15356445 98.02636719 C92.59051664 100.9895849 94.26403708 103.23182899 95 107 C91.01888833 108.05797259 87.97135144 108.17060542 84 107 C79.68283798 103.45469007 76.5927144 98.56387973 73.42138672 94.01757812 C71.37868392 91.11807693 69.19042446 88.35222459 67 85.5625 C62.68441908 79.92923767 58.42695662 74.25295736 54.19726562 68.55493164 C51.93244693 65.5162999 49.64261624 62.56590947 47.14453125 59.71484375 C45 57 45 57 45 54 C45.86689453 53.96036133 46.73378906 53.92072266 47.62695312 53.87988281 C50.87820059 53.72262044 54.12809309 53.54921584 57.37792969 53.36523438 C58.77798915 53.28920722 60.17840264 53.21940974 61.57910156 53.15625 C69.56643275 52.79163574 76.05062182 52.23155206 83 48 C83.66 48 84.32 48 85 48 C89.11182349 40.40894125 91.31821248 33.4960561 89.56640625 24.86328125 C87.9098286 19.4613976 84.81072315 15.93313994 80 13 C75.39085377 11.16797059 71.47111985 10.73178621 66.52587891 10.68115234 C65.80323853 10.67110672 65.08059814 10.6610611 64.33605957 10.65071106 C61.96623472 10.62001482 59.59652214 10.6028821 57.2265625 10.5859375 C55.5760299 10.5672149 53.92550676 10.54764068 52.2749939 10.5272522 C47.94486075 10.47604022 43.61469661 10.43635618 39.28442383 10.39910889 C34.86011151 10.35900048 30.4359269 10.3079394 26.01171875 10.2578125 C17.34123325 10.16118276 8.67068427 10.07673679 0 10 C0 6.7 0 3.4 0 0 Z " fill="#B58003" transform="translate(80,75)"/>
<path d="M0 0 C6.27 0 12.54 0 19 0 C19 7.59 19 15.18 19 23 C12.73 23 6.46 23 0 23 C0 15.41 0 7.82 0 0 Z " fill="#B58000" transform="translate(119,95)"/>
<path d="M0 0 C5 1 5 1 6.8125 2.5625 C8.94283494 6.93529277 8.52956232 11.41131305 7 16 C2.54285714 20 2.54285714 20 0 20 C0 13.4 0 6.8 0 0 Z " fill="#B17D02" transform="translate(152,97)"/>
<path d="M0 0 C4.62 0 9.24 0 14 0 C14 6.93 14 13.86 14 21 C12 19 12 19 11.8046875 15.0859375 C11.81799624 13.51550649 11.84186398 11.94513779 11.875 10.375 C11.88402344 9.57320312 11.89304687 8.77140625 11.90234375 7.9453125 C11.92593777 5.96341477 11.96180935 3.98167019 12 2 C8.37 2 4.74 2 1 2 C1 8.27 1 14.54 1 21 C0.67 21 0.34 21 0 21 C0 14.07 0 7.14 0 0 Z " fill="#0A1322" transform="translate(105,43)"/>
<path d="" fill="#000000" transform="translate(0,0)"/>
</svg>
