<?xml version="1.0" encoding="UTF-8"?>
<svg viewBox="0 0 400 300" xmlns="http://www.w3.org/2000/svg">
<symbol viewBox="0 0 120 32">
<path d="m10.05 10.06c4.47-3.03 9.09-6.15 10.67-10.06 11.37 20.26 0 37.24-17.48 27.28-7.53-7.52-0.55-12.24 6.81-17.22zm4.46 3.82c-2.54 2.06-5.21 4.21-5.93 8.23 1.53-2.28 3.43-3.9 5.2-5.43 2.8-2.39 5.3-4.53 5.56-8.53-0.8 2.47-2.78 4.07-4.83 5.73z" clip-rule="evenodd" fill="#4FD44B" fill-rule="evenodd"/>
<path d="m15.13 20.65h8.44v8.44h-8.44v-8.44zm8.43 0h8.44v8.44h-8.44v-8.44zm0-8.43h8.44v8.44h-8.44v-8.44zm-2.91 5.53h2.91v2.91h-2.91v-2.91zm-0.87-1.17h1.45v1.45h-1.45v-1.45zm-4.65 12.51h2.91v2.91h-2.91v-2.91zm-2.91-2.91h2.91v2.91h-2.91v-2.91z" fill="#161717"/>
<path d="m26.47 20.95h2.91v2.91h-2.91v-2.91zm0-4.66h1.45v1.45h-1.45v-1.45zm-2.91-4.07h1.45v1.45h-1.45v-1.45zm-8.43 8.43h2.91v2.91h-2.91v-2.91zm4.07 4.37h2.91v2.91h-2.91v-2.91zm2.33-6.11h3.78v3.78h-3.78v-3.78zm2.03 4.95h1.45v1.45h-1.45v-1.45zm-8.43 2.32h2.91v2.91h-2.91v-2.91z" fill="#4FD44B"/>
<path d="m107.42 21.8 5.22-11.6h2.12l5.24 11.6h-2.25l-4.49-10.46h0.86l-4.48 10.46h-2.22zm2.41-2.68 0.58-1.69h6.26l0.58 1.69h-7.42zm-12.89 2.68v-11.6h4.78c1.02 0 1.9 0.17 2.63 0.5 0.74 0.33 1.31 0.8 1.71 1.42 0.39 0.62 0.59 1.36 0.59 2.21s-0.2 1.58-0.59 2.2c-0.4 0.61-0.97 1.08-1.71 1.41-0.73 0.32-1.61 0.48-2.63 0.48h-3.58l0.96-0.98v4.36h-2.16zm7.59 0-2.93-4.21h2.3l2.95 4.21h-2.32zm-5.43-4.13-0.96-1.02h3.48c0.95 0 1.66-0.21 2.13-0.62 0.49-0.4 0.73-0.97 0.73-1.7 0-0.74-0.24-1.31-0.73-1.71-0.47-0.4-1.18-0.6-2.13-0.6h-3.48l0.96-1.06v6.71zm-7.45 4.13v-11.6h2.15v11.6h-2.15zm-5.26-11.6h2.15v11.6h-2.15v-11.6zm-6 11.6h-2.15v-11.6h2.15v11.6zm6.16-4.97h-6.34v-1.84h6.34v1.84zm-14.99 5.14c-0.88 0-1.7-0.15-2.46-0.43-0.76-0.3-1.41-0.72-1.98-1.25-0.55-0.54-0.98-1.17-1.29-1.9s-0.46-1.53-0.46-2.39 0.15-1.66 0.46-2.39c0.31-0.72 0.75-1.35 1.31-1.88 0.56-0.55 1.22-0.96 1.97-1.25 0.75-0.3 1.58-0.44 2.47-0.44 0.95 0 1.82 0.16 2.6 0.49 0.79 0.32 1.45 0.8 1.99 1.44l-1.39 1.31c-0.42-0.45-0.89-0.79-1.41-1.01-0.52-0.23-1.08-0.35-1.69-0.35s-1.17 0.1-1.67 0.3-0.94 0.48-1.31 0.85c-0.37 0.36-0.65 0.79-0.86 1.29-0.2 0.5-0.3 1.04-0.3 1.64s0.1 1.14 0.3 1.64c0.21 0.5 0.49 0.93 0.86 1.29 0.37 0.37 0.81 0.65 1.31 0.85s1.06 0.3 1.67 0.3 1.17-0.11 1.69-0.33c0.52-0.24 0.99-0.58 1.41-1.05l1.39 1.33c-0.54 0.63-1.2 1.11-1.99 1.44-0.78 0.33-1.65 0.5-2.62 0.5zm-19.26-0.17 5.22-11.6h2.13l5.23 11.6h-2.25l-4.49-10.46h0.86l-4.47 10.46h-2.23zm2.41-2.68 0.58-1.69h6.26l0.58 1.69h-7.42zm-12.04 2.68v-11.6h4.77c1.03 0 1.9 0.17 2.63 0.5 0.74 0.33 1.31 0.8 1.71 1.42s0.6 1.36 0.6 2.21-0.2 1.58-0.6 2.2-0.97 1.09-1.71 1.43c-0.73 0.33-1.6 0.49-2.63 0.49h-3.58l0.96-1.01v4.36h-2.15zm2.15-4.13-0.96-1.04h3.48c0.95 0 1.66-0.2 2.14-0.6s0.73-0.97 0.73-1.7c0-0.74-0.25-1.31-0.73-1.71s-1.19-0.6-2.14-0.6h-3.48l0.96-1.06v6.71z" fill="#4FD44B"/>
</symbol>
<rect width="400" height="300" rx="10" ry="10"/>
<use x="130" y="10" width="120" height="32" href="#pachira-logo"/>
<text x="200" y="70" fill="#00ff00" font-family="Courier New, monospace" font-size="24" font-weight="bold" text-anchor="middle">Token ID:</text>
<text x="200" y="100" fill="#00ff00" font-family="Courier New, monospace" font-size="24" font-weight="bold" text-anchor="middle">12345</text>
<text x="200" y="125" fill="#00ff00" font-family="Courier New, monospace" font-size="18" text-anchor="middle">Time until Unlock</text>
<text x="200" y="150" fill="#00ff00" font-family="Courier New, monospace" font-size="18" font-weight="bold" text-anchor="middle">30:00:00:00</text>
<rect x="50" y="170" width="150" height="100" rx="5" ry="5" fill="none" stroke="#0f0"/>
<text x="125" y="200" fill="#00ff00" font-family="Courier New, monospace" font-size="16" font-weight="bold" text-anchor="middle">ETH</text>
<text x="125" y="220" fill="#00ff00" font-family="Courier New, monospace" font-size="14" text-anchor="middle">Amount:</text>
<text x="125" y="250" fill="#00ff00" font-family="Courier New, monospace" font-size="14" text-anchor="middle">1.5</text>
<rect x="200" y="170" width="150" height="100" rx="5" ry="5" fill="none" stroke="#0f0"/>
<text x="275" y="200" fill="#00ff00" font-family="Courier New, monospace" font-size="16" font-weight="bold" text-anchor="middle">USDC</text>
<text x="275" y="220" fill="#00ff00" font-family="Courier New, monospace" font-size="14" text-anchor="middle">Amount:</text>
<text x="275" y="250" fill="#00ff00" font-family="Courier New, monospace" font-size="14" text-anchor="middle">1000</text>
</svg>
