<svg width="120" height="32" viewBox="0 0 120 32" fill="none" xmlns="http://www.w3.org/2000/svg">
<path fill-rule="evenodd" clip-rule="evenodd" d="M10.0465 10.0629C14.5232 7.03445 19.1413 3.91035 20.7199 0C32.0928 20.2585 20.7199 37.2366 3.23962 27.284C-4.28586 19.7585 2.68937 15.0399 10.0465 10.0629ZM14.5063 13.8812C11.966 15.9366 9.30449 18.0901 8.58096 22.1097C10.1068 19.8343 12.0059 18.2072 13.7835 16.6843C16.5812 14.2874 19.0778 12.1484 19.3446 8.14596C18.5389 10.6184 16.5623 12.2177 14.5063 13.8812Z" fill="#4FD44B"/>
<rect x="15.1268" y="20.6548" width="8.43641" height="8.43641" fill="#161717"/>
<rect x="23.5626" y="20.6548" width="8.43641" height="8.43641" fill="#161717"/>
<rect x="23.5626" y="12.2178" width="8.43641" height="8.43641" fill="#161717"/>
<rect x="20.6547" y="17.7456" width="2.90911" height="2.90911" fill="#161717"/>
<rect x="19.7814" y="16.5815" width="1.45455" height="1.45455" fill="#161717"/>
<rect x="15.1268" y="29.0913" width="2.90911" height="2.90911" fill="#161717"/>
<rect x="12.2179" y="26.1826" width="2.90911" height="2.90911" fill="#161717"/>
<rect x="26.4724" y="20.9453" width="2.90911" height="2.90911" fill="#4FD44B"/>
<rect x="26.4724" y="16.291" width="1.45455" height="1.45455" fill="#4FD44B"/>
<rect x="23.5626" y="12.2178" width="1.45455" height="1.45455" fill="#4FD44B"/>
<rect x="15.1268" y="20.6548" width="2.90911" height="2.90911" fill="#4FD44B"/>
<rect x="19.1997" y="25.0186" width="2.90911" height="2.90911" fill="#4FD44B"/>
<rect x="21.527" y="18.9092" width="3.78184" height="3.78184" fill="#4FD44B"/>
<rect x="23.5626" y="23.855" width="1.45455" height="1.45455" fill="#4FD44B"/>
<rect x="15.1268" y="26.1826" width="2.90911" height="2.90911" fill="#4FD44B"/>
<path d="M107.422 21.8008L112.642 10.2012H114.763L120 21.8008H117.746L113.255 11.3446H114.117L109.643 21.8008H107.422ZM109.825 19.1163L110.405 17.4261H116.669L117.249 19.1163H109.825Z" fill="#4FD44B"/>
<path d="M96.9424 21.8008V10.2012H101.715C102.742 10.2012 103.62 10.3669 104.35 10.6983C105.09 11.0297 105.659 11.5048 106.056 12.1234C106.454 12.742 106.653 13.4767 106.653 14.3273C106.653 15.178 106.454 15.9126 106.056 16.5313C105.659 17.1389 105.09 17.6084 104.35 17.9398C103.62 18.2602 102.742 18.4204 101.715 18.4204H98.1355L99.0966 17.4427V21.8008H96.9424ZM104.532 21.8008L101.599 17.5918H103.902L106.852 21.8008H104.532ZM99.0966 17.6747L98.1355 16.6473H101.615C102.565 16.6473 103.278 16.4429 103.753 16.0341C104.239 15.6254 104.482 15.0565 104.482 14.3273C104.482 13.5872 104.239 13.0182 103.753 12.6205C103.278 12.2228 102.565 12.024 101.615 12.024H98.1355L99.0966 10.9634V17.6747Z" fill="#4FD44B"/>
<path d="M91.6506 21.8008V10.2012H93.8049V21.8008H91.6506Z" fill="#4FD44B"/>
<path d="M86.3885 10.2012H88.5427V21.8008H86.3885V10.2012ZM80.3898 21.8008H78.2356V10.2012H80.3898V21.8008ZM86.5542 16.8295H80.2075V14.9902H86.5542V16.8295Z" fill="#4FD44B"/>
<path d="M71.5642 21.9662C70.6804 21.9662 69.8574 21.8226 69.0952 21.5354C68.3439 21.2371 67.6866 20.8228 67.1232 20.2926C66.5709 19.7512 66.14 19.116 65.8307 18.3869C65.5214 17.6578 65.3667 16.8624 65.3667 16.0007C65.3667 15.139 65.5214 14.3436 65.8307 13.6145C66.14 12.8854 66.5764 12.2557 67.1398 11.7254C67.7032 11.1841 68.3605 10.7698 69.1117 10.4826C69.8629 10.1843 70.686 10.0352 71.5808 10.0352C72.5309 10.0352 73.3981 10.2009 74.1824 10.5323C74.9668 10.8527 75.6296 11.3332 76.1709 11.974L74.779 13.2831C74.3592 12.8301 73.8897 12.4932 73.3705 12.2722C72.8512 12.0402 72.2878 11.9242 71.6802 11.9242C71.0726 11.9242 70.5147 12.0237 70.0066 12.2225C69.5094 12.4214 69.0731 12.7031 68.6975 13.0676C68.3329 13.4322 68.0457 13.863 67.8358 14.3602C67.6369 14.8573 67.5375 15.4041 67.5375 16.0007C67.5375 16.5972 67.6369 17.1441 67.8358 17.6412C68.0457 18.1383 68.3329 18.5692 68.6975 18.9337C69.0731 19.2983 69.5094 19.58 70.0066 19.7789C70.5147 19.9777 71.0726 20.0771 71.6802 20.0771C72.2878 20.0771 72.8512 19.9667 73.3705 19.7457C73.8897 19.5137 74.3592 19.1657 74.779 18.7018L76.1709 20.0274C75.6296 20.6571 74.9668 21.1377 74.1824 21.4691C73.3981 21.8005 72.5253 21.9662 71.5642 21.9662Z" fill="#4FD44B"/>
<path d="M52.3049 21.8008L57.5248 10.2012H59.6459L64.8823 21.8008H62.6286L58.1379 11.3446H58.9996L54.5254 21.8008H52.3049ZM54.7077 19.1163L55.2877 17.4261H61.5515L62.1315 19.1163H54.7077Z" fill="#4FD44B"/>
<path d="M42.666 21.8008V10.2012H47.4384C48.4658 10.2012 49.3441 10.3669 50.0732 10.6983C50.8134 11.0297 51.3823 11.5048 51.78 12.1234C52.1777 12.742 52.3766 13.4767 52.3766 14.3273C52.3766 15.178 52.1777 15.9126 51.78 16.5313C51.3823 17.1499 50.8134 17.6249 50.0732 17.9564C49.3441 18.2878 48.4658 18.4535 47.4384 18.4535H43.8591L44.8202 17.4427V21.8008H42.666ZM44.8202 17.6747L43.8591 16.6307H47.339C48.2891 16.6307 49.0016 16.4318 49.4767 16.0341C49.9627 15.6254 50.2058 15.0565 50.2058 14.3273C50.2058 13.5872 49.9627 13.0182 49.4767 12.6205C49.0016 12.2228 48.2891 12.024 47.339 12.024H43.8591L44.8202 10.9634V17.6747Z" fill="#4FD44B"/>
</svg>

