<svg width="120" height="32" viewBox="0 0 120 32" xmlns="http://www.w3.org/2000/svg">
<path fill-rule="evenodd" clip-rule="evenodd" d="M10.05 10.06C14.52 7.03 19.14 3.91 20.72 0C32.09 20.26 20.72 37.24 3.24 27.28C-4.29 19.76 2.69 15.04 10.05 10.06ZM14.51 13.88C11.97 15.94 9.3 18.09 8.58 22.11C10.11 19.83 12.01 18.21 13.78 16.68C16.58 14.29 19.08 12.15 19.34 8.15C18.54 10.62 16.56 12.22 14.51 13.88Z" fill="#4FD44B"/>
<path fill="#161717" d="M15.13 20.65h8.44v8.44h-8.44v-8.44zM23.56 20.65h8.44v8.44h-8.44v-8.44zM23.56 12.22h8.44v8.44h-8.44v-8.44zM20.65 17.75h2.91v2.91h-2.91v-2.91zM19.78 16.58h1.45v1.45h-1.45v-1.45zM15.13 29.09h2.91v2.91h-2.91v-2.91zM12.22 26.18h2.91v2.91h-2.91v-2.91z"/>
<path fill="#4FD44B" d="M26.47 20.95h2.91v2.91h-2.91v-2.91zM26.47 16.29h1.45v1.45h-1.45v-1.45zM23.56 12.22h1.45v1.45h-1.45v-1.45zM15.13 20.65h2.91v2.91h-2.91v-2.91zM19.2 25.02h2.91v2.91h-2.91v-2.91zM21.53 18.91h3.78v3.78h-3.78v-3.78zM23.56 23.86h1.45v1.45h-1.45v-1.45zM15.13 26.18h2.91v2.91h-2.91v-2.91z"/>
<path fill="#4FD44B" d="M107.42 21.8L112.64 10.2H114.76L120 21.8H117.75L113.26 11.34H114.12L109.64 21.8H107.42ZM109.83 19.12L110.41 17.43H116.67L117.25 19.12H109.83ZM96.94 21.8V10.2H101.72C102.74 10.2 103.62 10.37 104.35 10.7C105.09 11.03 105.66 11.5 106.06 12.12C106.45 12.74 106.65 13.48 106.65 14.33C106.65 15.18 106.45 15.91 106.06 16.53C105.66 17.14 105.09 17.61 104.35 17.94C103.62 18.26 102.74 18.42 101.72 18.42H98.14L99.1 17.44V21.8H96.94ZM104.53 21.8L101.6 17.59H103.9L106.85 21.8H104.53ZM99.1 17.67L98.14 16.65H101.62C102.57 16.65 103.28 16.44 103.75 16.03C104.24 15.63 104.48 15.06 104.48 14.33C104.48 13.59 104.24 13.02 103.75 12.62C103.28 12.22 102.57 12.02 101.62 12.02H98.14L99.1 10.96V17.67ZM91.65 21.8V10.2H93.8V21.8H91.65ZM86.39 10.2H88.54V21.8H86.39V10.2ZM80.39 21.8H78.24V10.2H80.39V21.8ZM86.55 16.83H80.21V14.99H86.55V16.83ZM71.56 21.97C70.68 21.97 69.86 21.82 69.1 21.54C68.34 21.24 67.69 20.82 67.12 20.29C66.57 19.75 66.14 19.12 65.83 18.39C65.52 17.66 65.37 16.86 65.37 16C65.37 15.14 65.52 14.34 65.83 13.61C66.14 12.89 66.58 12.26 67.14 11.73C67.7 11.18 68.36 10.77 69.11 10.48C69.86 10.18 70.69 10.04 71.58 10.04C72.53 10.04 73.4 10.2 74.18 10.53C74.97 10.85 75.63 11.33 76.17 11.97L74.78 13.28C74.36 12.83 73.89 12.49 73.37 12.27C72.85 12.04 72.29 11.92 71.68 11.92C71.07 11.92 70.51 12.02 70.01 12.22C69.51 12.42 69.07 12.7 68.7 13.07C68.33 13.43 68.05 13.86 67.84 14.36C67.64 14.86 67.54 15.4 67.54 16C67.54 16.6 67.64 17.14 67.84 17.64C68.05 18.14 68.33 18.57 68.7 18.93C69.07 19.3 69.51 19.58 70.01 19.78C70.51 19.98 71.07 20.08 71.68 20.08C72.29 20.08 72.85 19.97 73.37 19.75C73.89 19.51 74.36 19.17 74.78 18.7L76.17 20.03C75.63 20.66 74.97 21.14 74.18 21.47C73.4 21.8 72.53 21.97 71.56 21.97ZM52.3 21.8L57.52 10.2H59.65L64.88 21.8H62.63L58.14 11.34H59L54.53 21.8H52.3ZM54.71 19.12L55.29 17.43H61.55L62.13 19.12H54.71ZM42.67 21.8V10.2H47.44C48.47 10.2 49.34 10.37 50.07 10.7C50.81 11.03 51.38 11.5 51.78 12.12C52.18 12.74 52.38 13.48 52.38 14.33C52.38 15.18 52.18 15.91 51.78 16.53C51.38 17.15 50.81 17.62 50.07 17.96C49.34 18.29 48.47 18.45 47.44 18.45H43.86L44.82 17.44V21.8H42.67ZM44.82 17.67L43.86 16.63H47.34C48.29 16.63 49 16.43 49.48 16.03C49.96 15.63 50.21 15.06 50.21 14.33C50.21 13.59 49.96 13.02 49.48 12.62C49 12.22 48.29 12.02 47.34 12.02H43.86L44.82 10.96V17.67Z"/>
</svg>